STARTFONT 2.1
FONT tekfont2
COMMENT -misc-tektronix-medium-r-normal--15-150-75-75-m-90-iso8859-1
SIZE 15 75 75
FONTBOUNDINGBOX 9 13 0 -3
STARTPROPERTIES 9
FONT_ASCENT 10
FONT_DESCENT 3
DEFAULT_CHAR 32
CAP_HEIGHT 10
X_HEIGHT 7
PIXEL_SIZE 15
POINT_SIZE 150
FOUNDRY_NAME "misc"
FAMILY_NAME "tektronix"
ENDPROPERTIES
CHARS 96
STARTCHAR <unknown>
ENCODING 32
SWIDTH 42 0
DWIDTH 9 0
BBX 0 0 0 0
BITMAP
ENDCHAR
STARTCHAR <unknown>
ENCODING 33
SWIDTH 42 0
DWIDTH 9 0
BBX 1 10 3 0
BITMAP
80
80
80
80
80
80
80
00
00
80
ENDCHAR
STARTCHAR <unknown>
ENCODING 34
SWIDTH 42 0
DWIDTH 9 0
BBX 3 4 2 6
BITMAP
A0
A0
A0
A0
ENDCHAR
STARTCHAR <unknown>
ENCODING 35
SWIDTH 42 0
DWIDTH 9 0
BBX 7 10 0 0
BITMAP
28
28
FE
28
28
28
28
FE
28
28
ENDCHAR
STARTCHAR <unknown>
ENCODING 36
SWIDTH 42 0
DWIDTH 9 0
BBX 7 10 0 0
BITMAP
28
7C
AA
A8
7C
2A
2A
AA
7C
28
ENDCHAR
STARTCHAR <unknown>
ENCODING 37
SWIDTH 42 0
DWIDTH 9 0
BBX 7 10 0 0
BITMAP
40
A2
A4
48
10
10
24
4A
8A
04
ENDCHAR
STARTCHAR <unknown>
ENCODING 38
SWIDTH 42 0
DWIDTH 9 0
BBX 7 10 0 0
BITMAP
60
90
90
60
60
94
8C
84
84
7A
ENDCHAR
STARTCHAR <unknown>
ENCODING 39
SWIDTH 42 0
DWIDTH 9 0
BBX 3 4 2 6
BITMAP
20
20
40
80
ENDCHAR
STARTCHAR <unknown>
ENCODING 40
SWIDTH 42 0
DWIDTH 9 0
BBX 3 10 2 0
BITMAP
20
40
80
80
80
80
80
80
40
20
ENDCHAR
STARTCHAR <unknown>
ENCODING 41
SWIDTH 42 0
DWIDTH 9 0
BBX 3 10 2 0
BITMAP
80
40
20
20
20
20
20
20
40
80
ENDCHAR
STARTCHAR <unknown>
ENCODING 42
SWIDTH 42 0
DWIDTH 9 0
BBX 7 10 0 0
BITMAP
10
92
54
38
10
10
38
54
92
10
ENDCHAR
STARTCHAR <unknown>
ENCODING 43
SWIDTH 42 0
DWIDTH 9 0
BBX 7 7 0 1
BITMAP
10
10
10
FE
10
10
10
ENDCHAR
STARTCHAR <unknown>
ENCODING 44
SWIDTH 42 0
DWIDTH 9 0
BBX 4 4 1 -1
BITMAP
20
70
20
C0
ENDCHAR
STARTCHAR <unknown>
ENCODING 45
SWIDTH 42 0
DWIDTH 9 0
BBX 7 1 0 4
BITMAP
FE
ENDCHAR
STARTCHAR <unknown>
ENCODING 46
SWIDTH 42 0
DWIDTH 9 0
BBX 3 3 2 0
BITMAP
40
E0
40
ENDCHAR
STARTCHAR <unknown>
ENCODING 47
SWIDTH 42 0
DWIDTH 9 0
BBX 7 8 0 1
BITMAP
02
04
08
10
10
20
40
80
ENDCHAR
STARTCHAR <unknown>
ENCODING 48
SWIDTH 42 0
DWIDTH 9 0
BBX 7 10 0 0
BITMAP
38
44
86
8A
92
A2
C2
82
44
38
ENDCHAR
STARTCHAR <unknown>
ENCODING 49
SWIDTH 42 0
DWIDTH 9 0
BBX 5 10 1 0
BITMAP
20
60
A0
20
20
20
20
20
20
F8
ENDCHAR
STARTCHAR <unknown>
ENCODING 50
SWIDTH 42 0
DWIDTH 9 0
BBX 7 10 0 0
BITMAP
7C
82
02
02
7C
80
80
80
82
FE
ENDCHAR
STARTCHAR <unknown>
ENCODING 51
SWIDTH 42 0
DWIDTH 9 0
BBX 7 10 0 0
BITMAP
7C
82
02
02
0C
02
02
02
82
7C
ENDCHAR
STARTCHAR <unknown>
ENCODING 52
SWIDTH 42 0
DWIDTH 9 0
BBX 7 10 0 0
BITMAP
04
0C
14
24
44
84
FE
04
04
04
ENDCHAR
STARTCHAR <unknown>
ENCODING 53
SWIDTH 42 0
DWIDTH 9 0
BBX 7 10 0 0
BITMAP
FE
80
80
80
FC
02
02
02
84
78
ENDCHAR
STARTCHAR <unknown>
ENCODING 54
SWIDTH 42 0
DWIDTH 9 0
BBX 7 10 0 0
BITMAP
3C
42
80
80
BC
C2
82
82
82
7C
ENDCHAR
STARTCHAR <unknown>
ENCODING 55
SWIDTH 42 0
DWIDTH 9 0
BBX 7 10 0 0
BITMAP
FE
82
02
04
08
10
10
10
10
10
ENDCHAR
STARTCHAR <unknown>
ENCODING 56
SWIDTH 42 0
DWIDTH 9 0
BBX 7 10 0 0
BITMAP
7C
82
82
44
38
44
82
82
82
7C
ENDCHAR
STARTCHAR <unknown>
ENCODING 57
SWIDTH 42 0
DWIDTH 9 0
BBX 7 10 0 0
BITMAP
7C
82
82
82
42
3E
02
02
84
78
ENDCHAR
STARTCHAR <unknown>
ENCODING 58
SWIDTH 42 0
DWIDTH 9 0
BBX 3 7 2 1
BITMAP
40
E0
40
00
40
E0
40
ENDCHAR
STARTCHAR <unknown>
ENCODING 59
SWIDTH 42 0
DWIDTH 9 0
BBX 4 8 1 -2
BITMAP
20
70
20
00
20
70
20
C0
ENDCHAR
STARTCHAR <unknown>
ENCODING 60
SWIDTH 42 0
DWIDTH 9 0
BBX 6 10 1 0
BITMAP
0C
10
20
40
80
80
40
20
10
0C
ENDCHAR
STARTCHAR <unknown>
ENCODING 61
SWIDTH 42 0
DWIDTH 9 0
BBX 7 3 0 3
BITMAP
FE
00
FE
ENDCHAR
STARTCHAR <unknown>
ENCODING 62
SWIDTH 42 0
DWIDTH 9 0
BBX 6 10 0 0
BITMAP
C0
20
10
08
04
04
08
10
20
C0
ENDCHAR
STARTCHAR <unknown>
ENCODING 63
SWIDTH 42 0
DWIDTH 9 0
BBX 7 10 0 0
BITMAP
7C
82
02
02
1C
10
10
00
00
10
ENDCHAR
STARTCHAR <unknown>
ENCODING 64
SWIDTH 42 0
DWIDTH 9 0
BBX 7 10 0 0
BITMAP
3C
42
9A
AA
AA
AA
BE
80
42
3C
ENDCHAR
STARTCHAR <unknown>
ENCODING 65
SWIDTH 42 0
DWIDTH 9 0
BBX 7 10 0 0
BITMAP
10
28
44
82
82
82
FE
82
82
82
ENDCHAR
STARTCHAR <unknown>
ENCODING 66
SWIDTH 42 0
DWIDTH 9 0
BBX 7 10 0 0
BITMAP
F8
44
42
44
78
44
42
42
44
F8
ENDCHAR
STARTCHAR <unknown>
ENCODING 67
SWIDTH 42 0
DWIDTH 9 0
BBX 7 10 0 0
BITMAP
38
44
82
80
80
80
80
82
44
38
ENDCHAR
STARTCHAR <unknown>
ENCODING 68
SWIDTH 42 0
DWIDTH 9 0
BBX 7 10 0 0
BITMAP
F8
44
42
42
42
42
42
42
44
F8
ENDCHAR
STARTCHAR <unknown>
ENCODING 69
SWIDTH 42 0
DWIDTH 9 0
BBX 7 10 0 0
BITMAP
FE
80
80
80
F8
80
80
80
80
FE
ENDCHAR
STARTCHAR <unknown>
ENCODING 70
SWIDTH 42 0
DWIDTH 9 0
BBX 7 10 0 0
BITMAP
FE
80
80
80
F8
80
80
80
80
80
ENDCHAR
STARTCHAR <unknown>
ENCODING 71
SWIDTH 42 0
DWIDTH 9 0
BBX 7 10 0 0
BITMAP
38
44
82
80
80
80
8E
82
46
3A
ENDCHAR
STARTCHAR <unknown>
ENCODING 72
SWIDTH 42 0
DWIDTH 9 0
BBX 7 10 0 0
BITMAP
82
82
82
82
FE
82
82
82
82
82
ENDCHAR
STARTCHAR <unknown>
ENCODING 73
SWIDTH 42 0
DWIDTH 9 0
BBX 5 10 1 0
BITMAP
F8
20
20
20
20
20
20
20
20
F8
ENDCHAR
STARTCHAR <unknown>
ENCODING 74
SWIDTH 42 0
DWIDTH 9 0
BBX 7 10 0 0
BITMAP
0E
04
04
04
04
04
04
84
84
78
ENDCHAR
STARTCHAR <unknown>
ENCODING 75
SWIDTH 42 0
DWIDTH 9 0
BBX 7 10 0 0
BITMAP
86
88
90
A0
C0
C0
A0
90
88
86
ENDCHAR
STARTCHAR <unknown>
ENCODING 76
SWIDTH 42 0
DWIDTH 9 0
BBX 7 10 0 0
BITMAP
C0
40
40
40
40
40
40
40
42
7E
ENDCHAR
STARTCHAR <unknown>
ENCODING 77
SWIDTH 42 0
DWIDTH 9 0
BBX 7 10 0 0
BITMAP
C6
AA
92
92
92
82
82
82
82
82
ENDCHAR
STARTCHAR <unknown>
ENCODING 78
SWIDTH 42 0
DWIDTH 9 0
BBX 7 10 0 0
BITMAP
82
C2
A2
92
8A
86
82
82
82
82
ENDCHAR
STARTCHAR <unknown>
ENCODING 79
SWIDTH 42 0
DWIDTH 9 0
BBX 7 10 0 0
BITMAP
38
44
82
82
82
82
82
82
44
38
ENDCHAR
STARTCHAR <unknown>
ENCODING 80
SWIDTH 42 0
DWIDTH 9 0
BBX 7 10 0 0
BITMAP
FC
82
82
82
FC
80
80
80
80
80
ENDCHAR
STARTCHAR <unknown>
ENCODING 81
SWIDTH 42 0
DWIDTH 9 0
BBX 7 10 0 0
BITMAP
38
44
82
82
82
82
8A
8A
44
3A
ENDCHAR
STARTCHAR <unknown>
ENCODING 82
SWIDTH 42 0
DWIDTH 9 0
BBX 7 10 0 0
BITMAP
FC
82
82
82
FC
A0
90
88
84
82
ENDCHAR
STARTCHAR <unknown>
ENCODING 83
SWIDTH 42 0
DWIDTH 9 0
BBX 7 10 0 0
BITMAP
3C
42
80
80
7C
02
02
02
84
78
ENDCHAR
STARTCHAR <unknown>
ENCODING 84
SWIDTH 42 0
DWIDTH 9 0
BBX 7 10 0 0
BITMAP
FE
92
10
10
10
10
10
10
10
10
ENDCHAR
STARTCHAR <unknown>
ENCODING 85
SWIDTH 42 0
DWIDTH 9 0
BBX 7 10 0 0
BITMAP
82
82
82
82
82
82
82
82
82
7C
ENDCHAR
STARTCHAR <unknown>
ENCODING 86
SWIDTH 42 0
DWIDTH 9 0
BBX 7 10 0 0
BITMAP
82
82
82
82
82
82
82
44
28
10
ENDCHAR
STARTCHAR <unknown>
ENCODING 87
SWIDTH 42 0
DWIDTH 9 0
BBX 7 10 0 0
BITMAP
82
82
82
82
82
92
92
92
92
6C
ENDCHAR
STARTCHAR <unknown>
ENCODING 88
SWIDTH 42 0
DWIDTH 9 0
BBX 7 10 0 0
BITMAP
82
82
44
28
10
10
28
44
82
82
ENDCHAR
STARTCHAR <unknown>
ENCODING 89
SWIDTH 42 0
DWIDTH 9 0
BBX 7 10 0 0
BITMAP
82
82
82
82
44
28
10
10
10
10
ENDCHAR
STARTCHAR <unknown>
ENCODING 90
SWIDTH 42 0
DWIDTH 9 0
BBX 7 10 0 0
BITMAP
FE
82
04
08
10
10
20
40
82
FE
ENDCHAR
STARTCHAR <unknown>
ENCODING 91
SWIDTH 42 0
DWIDTH 9 0
BBX 7 10 0 0
BITMAP
FE
C0
C0
C0
C0
C0
C0
C0
C0
FE
ENDCHAR
STARTCHAR <unknown>
ENCODING 92
SWIDTH 42 0
DWIDTH 9 0
BBX 7 8 0 1
BITMAP
80
40
20
10
10
08
04
02
ENDCHAR
STARTCHAR <unknown>
ENCODING 93
SWIDTH 42 0
DWIDTH 9 0
BBX 7 10 0 0
BITMAP
FE
06
06
06
06
06
06
06
06
FE
ENDCHAR
STARTCHAR <unknown>
ENCODING 94
SWIDTH 42 0
DWIDTH 9 0
BBX 7 4 0 6
BITMAP
10
28
44
82
ENDCHAR
STARTCHAR <unknown>
ENCODING 95
SWIDTH 42 0
DWIDTH 9 0
BBX 9 1 0 -1
BITMAP
FF80
ENDCHAR
STARTCHAR <unknown>
ENCODING 96
SWIDTH 42 0
DWIDTH 9 0
BBX 3 4 2 6
BITMAP
80
80
40
20
ENDCHAR
STARTCHAR <unknown>
ENCODING 97
SWIDTH 42 0
DWIDTH 9 0
BBX 7 7 0 0
BITMAP
F8
04
7C
84
84
84
7A
ENDCHAR
STARTCHAR <unknown>
ENCODING 98
SWIDTH 42 0
DWIDTH 9 0
BBX 7 10 0 0
BITMAP
C0
40
40
5C
62
42
42
42
62
DC
ENDCHAR
STARTCHAR <unknown>
ENCODING 99
SWIDTH 42 0
DWIDTH 9 0
BBX 7 7 0 0
BITMAP
7C
80
80
80
80
82
7C
ENDCHAR
STARTCHAR <unknown>
ENCODING 100
SWIDTH 42 0
DWIDTH 9 0
BBX 7 10 0 0
BITMAP
06
04
04
74
8C
84
84
84
8C
76
ENDCHAR
STARTCHAR <unknown>
ENCODING 101
SWIDTH 42 0
DWIDTH 9 0
BBX 7 7 0 0
BITMAP
7C
82
FE
80
80
82
7C
ENDCHAR
STARTCHAR <unknown>
ENCODING 102
SWIDTH 42 0
DWIDTH 9 0
BBX 5 10 1 0
BITMAP
30
48
40
40
E0
40
40
40
40
E0
ENDCHAR
STARTCHAR <unknown>
ENCODING 103
SWIDTH 42 0
DWIDTH 9 0
BBX 7 10 0 -3
BITMAP
76
8C
84
84
84
8C
74
04
84
78
ENDCHAR
STARTCHAR <unknown>
ENCODING 104
SWIDTH 42 0
DWIDTH 8 0
BBX 7 10 0 0
BITMAP
C0
40
40
58
64
44
44
44
44
C6
ENDCHAR
STARTCHAR <unknown>
ENCODING 105
SWIDTH 42 0
DWIDTH 9 0
BBX 5 9 1 0
BITMAP
20
00
60
20
20
20
20
20
F8
ENDCHAR
STARTCHAR <unknown>
ENCODING 106
SWIDTH 42 0
DWIDTH 9 0
BBX 5 10 1 -3
BITMAP
18
08
08
08
08
08
08
08
88
70
ENDCHAR
STARTCHAR <unknown>
ENCODING 107
SWIDTH 42 0
DWIDTH 9 0
BBX 7 10 0 0
BITMAP
C0
40
40
46
48
50
60
50
48
C6
ENDCHAR
STARTCHAR <unknown>
ENCODING 108
SWIDTH 42 0
DWIDTH 9 0
BBX 3 10 2 0
BITMAP
C0
40
40
40
40
40
40
40
40
20
ENDCHAR
STARTCHAR <unknown>
ENCODING 109
SWIDTH 42 0
DWIDTH 9 0
BBX 7 7 0 0
BITMAP
B6
DA
92
92
92
92
92
ENDCHAR
STARTCHAR <unknown>
ENCODING 110
SWIDTH 42 0
DWIDTH 9 0
BBX 7 7 0 0
BITMAP
D8
64
44
44
44
44
C6
ENDCHAR
STARTCHAR <unknown>
ENCODING 111
SWIDTH 42 0
DWIDTH 9 0
BBX 6 7 0 0
BITMAP
30
48
84
84
84
48
30
ENDCHAR
STARTCHAR <unknown>
ENCODING 112
SWIDTH 42 0
DWIDTH 9 0
BBX 7 10 0 -3
BITMAP
DC
62
42
42
42
62
5C
40
40
C0
ENDCHAR
STARTCHAR <unknown>
ENCODING 113
SWIDTH 42 0
DWIDTH 9 0
BBX 7 10 0 -3
BITMAP
76
8C
84
84
84
8C
74
04
04
06
ENDCHAR
STARTCHAR <unknown>
ENCODING 114
SWIDTH 42 0
DWIDTH 9 0
BBX 7 7 0 0
BITMAP
CC
52
60
40
40
40
E0
ENDCHAR
STARTCHAR <unknown>
ENCODING 115
SWIDTH 42 0
DWIDTH 9 0
BBX 7 7 0 0
BITMAP
3C
40
3C
02
02
82
7C
ENDCHAR
STARTCHAR <unknown>
ENCODING 116
SWIDTH 42 0
DWIDTH 9 0
BBX 7 10 0 0
BITMAP
20
20
20
F8
20
20
20
20
22
1C
ENDCHAR
STARTCHAR <unknown>
ENCODING 117
SWIDTH 42 0
DWIDTH 9 0
BBX 7 7 0 0
BITMAP
C4
44
44
44
44
44
3A
ENDCHAR
STARTCHAR <unknown>
ENCODING 118
SWIDTH 42 0
DWIDTH 9 0
BBX 7 7 0 0
BITMAP
82
82
82
82
44
28
10
ENDCHAR
STARTCHAR <unknown>
ENCODING 119
SWIDTH 42 0
DWIDTH 9 0
BBX 7 7 0 0
BITMAP
82
82
82
92
92
AA
44
ENDCHAR
STARTCHAR <unknown>
ENCODING 120
SWIDTH 42 0
DWIDTH 9 0
BBX 7 7 0 0
BITMAP
C6
28
10
10
10
28
C6
ENDCHAR
STARTCHAR <unknown>
ENCODING 121
SWIDTH 42 0
DWIDTH 9 0
BBX 7 10 0 -3
BITMAP
86
84
84
84
84
8C
74
04
84
78
ENDCHAR
STARTCHAR <unknown>
ENCODING 122
SWIDTH 42 0
DWIDTH 9 0
BBX 7 7 0 0
BITMAP
FE
84
08
10
20
42
FE
ENDCHAR
STARTCHAR <unknown>
ENCODING 123
SWIDTH 42 0
DWIDTH 9 0
BBX 3 11 2 -1
BITMAP
20
40
40
40
40
80
40
40
40
40
20
ENDCHAR
STARTCHAR <unknown>
ENCODING 124
SWIDTH 42 0
DWIDTH 9 0
BBX 1 13 3 -3
BITMAP
80
80
80
80
80
80
80
80
80
80
80
80
80
ENDCHAR
STARTCHAR <unknown>
ENCODING 125
SWIDTH 42 0
DWIDTH 9 0
BBX 3 11 2 -1
BITMAP
80
40
40
40
40
20
40
40
40
40
80
ENDCHAR
STARTCHAR <unknown>
ENCODING 126
SWIDTH 42 0
DWIDTH 9 0
BBX 7 3 0 7
BITMAP
60
92
0C
ENDCHAR
STARTCHAR <unknown>
ENCODING 127
SWIDTH 42 0
DWIDTH 9 0
BBX 9 13 0 -3
BITMAP
AA80
5500
AA80
5500
AA80
5500
AA80
5500
AA80
5500
AA80
5500
AA80
ENDCHAR
ENDFONT
